<?xml version="1.0" standalone="no"?>
<!DOCTYPE svg PUBLIC "-//W3C//DTD SVG 20010904//EN"
 "http://www.w3.org/TR/2001/REC-SVG-20010904/DTD/svg10.dtd">
<svg version="1.0" xmlns="http://www.w3.org/2000/svg"
 width="400.000000pt" height="400.000000pt" viewBox="0 0 400.000000 400.000000"
 preserveAspectRatio="xMidYMid meet">

<g transform="translate(0.000000,400.000000) scale(0.100000,-0.100000)"
fill="#000000" stroke="none">
<path d="M3119 2568 c-122 -183 -214 -326 -203 -318 10 8 60 54 109 101 50 48
105 99 123 114 l32 27 0 -486 c0 -267 -3 -486 -6 -486 -9 0 -1 -9 -303 345
-51 61 -104 122 -117 137 -13 15 -97 114 -188 220 -90 106 -233 274 -317 373
-85 99 -168 197 -185 218 l-30 37 -694 -2 -695 -3 365 -394 c201 -217 378
-409 393 -428 34 -40 42 -26 -99 -173 -254 -265 -630 -664 -644 -682 l-14 -21
359 6 c198 4 516 10 707 13 l347 7 98 134 c54 74 122 167 150 206 29 40 76
105 104 146 46 66 48 73 23 56 -38 -24 -181 -130 -370 -272 l-151 -113 -422 0
-423 0 184 197 c101 108 236 253 300 322 65 70 118 130 118 135 0 10 -40 57
-134 156 -39 42 -105 111 -146 155 -41 44 -115 123 -165 175 -49 53 -121 129
-160 170 l-70 75 450 3 450 2 35 -37 c30 -32 512 -572 665 -744 82 -93 718
-802 743 -829 l23 -25 -7 905 c-3 498 -8 906 -9 908 -2 2 -103 -146 -226 -330z"/>
</g>
</svg>
